<?xml version="1.0" encoding="utf-8"?>
<!-- Generator: Adobe Illustrator 26.5.0, SVG Export Plug-In . SVG Version: 6.00 Build 0)  -->
<svg version="1.1" id="Layer_1" xmlns="http://www.w3.org/2000/svg" xmlns:xlink="http://www.w3.org/1999/xlink" x="0px" y="0px"
	 viewBox="0 0 293.9 293.7" style="enable-background:new 0 0 293.9 293.7;" xml:space="preserve">
<style type="text/css">
	.st0{fill:#FFFFFF;}
	.st1{fill-rule:evenodd;clip-rule:evenodd;fill:#FFFFFF;}
</style>
<g>
	<path class="st0" d="M78.2,141.3c0-5.5,4.5-10,9.9-10h0.1l16.5,0.1c5.5,0,10,4.5,10,10l0,0V204c1.8-0.6,4.2-1.1,6.9-1.8
		c3.8-0.9,6.4-4.2,6.4-8.1v-77.7c0-5.5,4.5-10,10-10h16.6c5.5,0,10,4.5,10,10v72.1c0,0,4.2-1.7,8.2-3.4c3-1.3,5-4.3,5.1-7.7v-86
		c0-5.5,4.5-10,10-10h16.6c5.5,0,10,4.5,10,10v70.8c14.4-10.5,29-23,40.6-38c3.4-4.5,4.4-10.3,2.6-15.6
		C241.6,61.9,198,30.2,148.6,29.5c-65-0.9-118.7,52.2-118.7,117.2c-0.1,20.6,5.3,40.8,15.6,58.6c2.9,5,8.4,7.8,14.1,7.3
		c3.1-0.2,7-0.6,11.7-1.2c4.2-0.5,7.3-4,7.3-8.2L78.2,141.3"/>
	<path class="st0" d="M77.8,241.7c52.4,38.1,125.7,26.5,163.8-25.9c14.6-20,22.4-44.2,22.4-69c0-2.7-0.2-5.4-0.3-8
		C220.9,202.7,141.8,232.6,77.8,241.7"/>
</g>
<g id="Symbols">
	<g id="footer">
		<g id="Group-7">
			<g id="twitter">
				<g id="Group-5">
					<path id="Fill-3" class="st1" d="M147.5,293.7C66,293.7,0,227.6,0,146.8S66,0,147.5,0c9.8,0,19.8,1.2,29.6,3.1
						c5.6,1.2,10.5,2.4,16,4.3c2.5,0.6,4.3,3.7,3.1,6.1c-0.6,2.4-3.7,4.3-6.2,3.1c-5-1.8-9.8-3.1-14.8-3.7
						c-9.2-1.8-18.5-3.1-27.7-3.1C71.6,9.8,9.8,71.6,9.8,146.9s61.7,137,137.1,137S284,222.7,284,146.8c0-22.6-5.6-44.7-16-64.2
						c-1.2-2.4-0.6-5.5,1.9-6.7s5.6-0.6,6.8,1.8C287.8,99.1,294,123,294,146.8C294.4,227.6,228.4,293.7,147.5,293.7"/>
				</g>
				<path id="Fill-6" class="st1" d="M249.7,51.4c-1.2,0-2.5-0.6-3.1-1.8c-3.1-3.7-6.8-7.3-10.6-11c-3.1-2.4-5.6-4.9-8.7-7.3
					c-2.5-1.8-2.5-4.9-1.2-7.3c1.2-2.4,4.3-3.1,6.8-1.2c3.1,2.4,6.2,4.9,9.3,8c3.7,3.7,8.1,7.3,11.2,11.6c1.9,1.8,1.9,5.5,0,8
					C252.2,50.8,250.9,51.4,249.7,51.4"/>
			</g>
		</g>
	</g>
</g>
</svg>
